<?xml version="1.0" ?><!DOCTYPE svg  PUBLIC '-//W3C//DTD SVG 1.1//EN'  'http://www.w3.org/Graphics/SVG/1.1/DTD/svg11.dtd'><svg height="8.4666mm" style="shape-rendering:geometricPrecision; text-rendering:geometricPrecision; image-rendering:optimizeQuality; fill-rule:evenodd; clip-rule:evenodd" version="1.1" viewBox="0 0 846.66 846.66" width="8.4666mm" xml:space="preserve" xmlns="http://www.w3.org/2000/svg" xmlns:xlink="http://www.w3.org/1999/xlink"><defs><style type="text/css">
   <![CDATA[
    .fil0 {fill:black;fill-rule:nonzero}
   ]]>
  </style></defs><g id="Layer_x0020_1"><path class="fil0" d="M681.83 484.09c0,-27.16 41.3,-27.16 41.3,0l0 331.26c0,11.4 -9.25,20.64 -20.65,20.64l-651.64 0c-11.4,0 -20.65,-9.24 -20.65,-20.64l0 -784.04c0,-11.4 9.25,-20.64 20.65,-20.64l507.83 0c90.49,0 164.46,73.96 164.46,164.45l0 91.1c0,27.15 -41.3,27.15 -41.3,0l0 -91.1c0,-67.7 -55.46,-123.16 -123.16,-123.16l-487.19 0 0 631.33 610.35 0 0 -199.2zm-229.82 149.65c-27.16,0 -27.16,-41.3 0,-41.3l158.98 0c27.15,0 27.15,41.3 0,41.3l-158.98 0zm0 -76.4c-27.16,0 -27.16,-41.29 0,-41.29l158.98 0c27.15,0 27.15,41.29 0,41.29l-158.98 0zm-380.53 167.24l0 70.12 610.35 0 0 -70.12 -610.35 0zm189.56 -378.86c64.2,0 116.65,52.45 116.65,116.66l0 98.06c0,11.4 -9.25,20.65 -20.65,20.65l-192.01 0c-11.4,0 -20.64,-9.25 -20.64,-20.65l0 -98.06c0,-64.21 52.44,-116.66 116.65,-116.66zm0 41.3c-41.41,0 -75.36,33.95 -75.36,75.36l0 77.42 150.72 0 0 -77.42c0,-41.41 -33.96,-75.36 -75.36,-75.36zm0 -256.02c52.45,0 94.97,42.53 94.97,94.98 0,52.45 -42.52,94.97 -94.97,94.97 -52.45,0 -94.97,-42.52 -94.97,-94.97 0,-52.45 42.52,-94.98 94.97,-94.98zm0 41.29c-29.65,0 -53.68,24.04 -53.68,53.69 0,29.64 24.03,53.68 53.68,53.68 29.65,0 53.68,-24.04 53.68,-53.68 0,-29.65 -24.03,-53.69 -53.68,-53.69zm312.92 188.89c-17.06,-20.98 14.88,-46.95 31.94,-25.97l42.21 51.86 134.71 -108.06c21.08,-16.95 46.88,15.15 25.8,32.1l-150.66 120.86c-8.82,7.08 -21.72,5.72 -28.87,-3.06l-55.13 -67.73z"/></g></svg>